<svg width="400" height="512" xmlns="http://www.w3.org/2000/svg">
  <path style="fill:#1a1a1a" d="M112.73 499.163c-19.782-31.407-39.626-53.404-65.276-72.367-5.98-4.414-11.48-8.766-12.23-9.678-.75-.9-6-3.809-11.67-6.456-16.156-7.555-18.262-14.386-13.35-43.295 2.907-17.121 4.113-43.17 4.063-87.87-.069-61.028-2.625-88.87-13.313-145.29-3.018-15.91.313-21.116 21.844-34.122 11.094-6.7 24.556-16.828 29.913-22.503 8.5-9.004 38.156-51.637 46.668-67.097 2.331-4.234 6.3-5.589 18.25-6.22 8.4-.436 17.813.544 20.919 2.199 8.019 4.27 56.281 3.321 86.875-1.711 14.206-2.335 31.23-4.433 37.85-4.664 11.856-.412 12.237-.15 26.5 18.506 19.806 25.881 42.643 48.959 53.55 54.11 5 2.36 11.53 6.556 14.518 9.328 2.994 2.773 11.625 7.693 19.188 10.927 21.056 9.01 23.218 12.426 18.15 28.597-10.313 32.85-15.294 118.428-9.607 164.702 2.894 23.564 9.663 66.253 13.388 84.48 1.581 7.704 1.362 12.68-.675 15.178-1.669 2.036-14.65 12.344-28.844 22.903-41.25 30.67-70.831 61.652-84.125 88.107l-4.187 8.33-43.475-.874c-30.444-.612-51.206.4-69.287 3.371-14.194 2.33-30.707 4.246-36.688 4.246-10.012 0-11.5-.999-18.95-12.831zm38.837-8.454c11.843-6.157 67.418-8.555 105.587-4.559l19.494 2.042 8.18-11.738c19.25-27.654 66.657-75.283 83.913-84.318 14.65-7.661 16.7-18.045 10.3-52.186a519.461 518.955 0 0 1-8.1-71.268c-.375-8.18-1.6-25.425-2.75-38.325-1.312-14.81-.975-28.254.894-36.495 3.762-16.603 10.487-76.632 9.187-81.995-.55-2.23-7.03-7.03-14.418-10.671-7.388-3.64-17.713-10.633-22.944-15.547-5.231-4.908-10.531-8.93-11.781-8.93-3.538 0-36.2-34.778-49.125-52.31l-11.656-15.81-12.625 1.886c-6.938 1.036-14.5 2.872-16.775 4.09-2.282 1.217-13.688 3.527-25.338 5.144-21.468 2.966-66.75.063-79.487-5.095-9.375-3.802-17.3 2.58-29.281 23.577-13.325 23.352-21.888 34.167-44.281 55.97-20.613 20.062-27.375 25.807-30.344 25.807-1.256 0-4.563 2.497-7.319 5.532-4.525 4.97-4.687 6.805-1.6 18.25 7.619 28.254 11.856 102.044 10.163 176.877l-1.638 72.242 6.1 3.21c25.313 13.343 74.244 59.854 84.962 80.777 7.77 15.154 18.688 20.08 30.688 13.843zm35.812-15.254c-9.706-1.624-22.2-5.02-27.756-7.537-5.563-2.516-11.213-4.57-12.575-4.57-1.356 0-4.013-1.848-5.894-4.109-1.881-2.247-7.406-5.981-12.275-8.28-9.362-4.42-30.712-25.474-40.737-40.172-34.331-50.345-48-112.496-42.256-192.3 3.537-49.251 11.83-78.766 28.3-100.714 3.7-4.932 8.212-12.544 10.025-16.902 1.812-4.358 4.374-7.93 5.687-7.93 1.312 0 2.387-1.779 2.387-3.958 0-11.851 58.52-54.565 78.544-57.332 28.125-3.87 72.725 1.455 90.962 10.884 11.975 6.187 43.969 31.375 50.588 39.817 3.737 4.77 8.625 10.677 10.875 13.125 4.687 5.138 16.725 26.324 16.225 28.565-.194.825 2.73 9.678 6.48 19.675 9.7 25.806 17.95 73.072 18.288 104.691.357 34.03-6.843 85.76-15.612 112.203-12.225 36.839-42.419 82.257-60.65 91.242-3.769 1.86-10.519 5.713-15 8.573-10.55 6.718-40.087 15.734-55.706 17.002-6.725.55-20.175-.337-29.887-1.973zm52.812-13.918c28.163-7.705 54.644-30.445 68.75-59.023 3.675-7.43 9.438-18.994 12.813-25.682 21.75-43.139 25.362-141.08 7.9-214.945-4.163-17.62-18.563-49.777-30.144-67.36-9.462-14.348-35.7-37.4-50.387-44.269-27.538-12.887-77.631-12.144-104.2 1.536-14.45 7.443-38.163 33.748-48.519 53.823-4.462 8.641-9.5 17.545-11.2 19.774-4.893 6.431-13.718 34.672-17.737 56.776-2.169 11.932-3.581 37.513-3.438 62.189.532 86.29 23.125 153.893 64.406 192.63 14.225 13.35 16.832 14.473 23.625 10.196 3.294-2.073 4.082-9.503 4.082-38.487 0-19.756-.944-38.213-2.1-41.022-2.025-4.927-2.275-4.933-7.532-.188-3.85 3.46-6.293 4.059-8.337 2.023-2.044-2.035-.225-4.914 6.181-9.828 27.025-20.704 35.75-26.349 38.913-25.144 2.68 1.024 3.187 9.198 2.187 35.34-.7 18.695-.787 33.999-.187 33.999.606 0 6.337-10.115 12.73-22.497 6.394-12.363 17.463-29.084 24.6-37.145 12.832-14.473 13.076-14.604 20.813-10.758 4.3 2.135 11.806 6.75 16.669 10.252 7.45 5.37 8.556 7.518 7.012 13.656-4.375 17.439-15.45 36.589-32.187 55.683-9.888 11.282-17.219 21.735-16.288 23.233 4.438 7.137 22.17.362 34.888-13.318 10.769-11.595 15.394-10.833 15.394 2.523 0 5.95-1.313 10.814-2.913 10.814-1.6 0-4.519 1.598-6.475 3.559-1.962 1.942-10.362 5.164-18.669 7.143-17.025 4.059-26.05 1.81-40.187-10.021-8.7-7.287-13.275-6.138-13.275 3.34 0 8.904-7.462 15.672-15.169 13.737-7.168-1.786-10.837 1.96-5.856 5.981 8.763 7.075 50.362 7.918 73.831 1.499zM99.754 319.988c-4.256-2.604-4.756-8.317-4.787-54.821-.032-59.523-.782-64.612-9.106-62.67-3.188.75-7.488.256-9.544-1.074-7.2-4.67.125-8.43 16.812-8.654 27-.362 95.438.48 96.138 1.186.356.344.812 24.913 1.03 54.578.42 58.3 1.645 63.407 15.176 63.407 6.5 0 8.537 3.752 3.675 6.743-2.019 1.249-43.988 5.944-48.763.225-3.206-3.846-4.706-44.581-5.6-118.128l-23.1 1.667-.512 57.737c-.288 31.757-1.138 58.362-1.9 59.13-2.956 2.934-25 3.44-29.513.687zm139.062-63.47c4.582-2.977 8.338-7.567 8.344-10.202 0-5.944-20.975-29.002-26.4-29.002-2.187 0-6.219 2.734-8.969 6.081-4.062 4.939-5.662 5.432-8.512 2.641-2.875-2.803-1.013-5.682 10-15.547a1571.19 1569.658 0 0 0 17.812-16.165c9.6-9.03 16.525-5.177 41.35 22.99 13.107 14.866 24.863 27.036 26.119 27.036 3.731 0 7.35-5.97 11.95-19.712 5.45-16.297 3.794-20.842-7.6-20.842-11.012 0-17.25-6.182-12.269-12.17 3.688-4.414 36.55-5.932 39.113-1.81 2.843 4.576-6.4 28.871-33.088 86.977-13.018 28.335-36.656 45.961-48.875 45.961-31.587 0-40.25-45.949-8.975-66.235zm29.044 38.62c6.894-5.395 13.75-13.987.225-29.06-8.469-9.428-14.75-9.266-25.669.687-12.193 11.102-3.043 50.644 25.438 28.372zM140.292 177.982c-1.607-.712-.232-3.933 2.106-3.933 4.281 0 4.325-.544 5.437-65.561.125-8.28-.356-8.742-8.675-8.099-6.356.5-8.83-.455-8.83-3.371 0-2.248.962-4.078 2.143-4.078 1.181 0 10.987-8.023 21.794-17.838 27.08-24.601 28.375-23.69 27.23 19.193-.5 18.595-.287 33.78.457 33.742.75-.03 6.663-11.101 13.137-24.588 12.4-25.806 27.85-45.655 35.544-45.655 7.281 0 27.494 14.31 29.081 20.592 3.875 15.36-6.937 34.735-37.487 67.203-10 10.627-12.063 14.298-9.625 17.208 4.612 5.532 22.15 2.217 32.031-6.056 10.063-8.43 18.838-9.266 18.838-1.811 0 9.016-12.238 18.17-29.438 22.028-10.312 2.31-26-2.16-38.412-10.958-12.013-9.503-16.413-3.26-18.138 8.504-1.562 12.307-25.768 8.567-37.2 3.478zm91.312-96.15c1.75-5.663-5.488-25.6-35.875 41.03-17.694 36.051 27.706-14.705 35.875-41.023zm.562 282.224c3.95-8.035 6.8-16.465 6.338-18.744-1.438-7.024-14.938 5.788-22.75 21.592-3.813 7.686-9.856 18.844-13.45 24.794-3.588 5.95-6.525 12.638-6.519 14.873 0 6.681 28.638-26.786 36.375-42.52z" />
</svg>