<svg width="400" height="512" xmlns="http://www.w3.org/2000/svg">
  <path style="fill:#1a1a1a" d="M228.501 329.851c-7.425 0-22.957 19.87-35.256 45.693-6.427 13.495-12.294 24.57-13.032 24.601-.75.038-.95-15.166-.462-33.767 1.131-42.914-.144-43.82-27.013-19.206-10.725 9.821-20.45 17.851-21.625 17.851-.697 0-7.883 8.59 6.65 7.449 8.25-.648 8.606-.176 8.606 8.105v52.32c0 8.631-10.122 13.9-17.916 8.138-5.321 9.875 28.28 26.857 31.865 18.722-4.408-1.87-1.143-6.072 2.516-5.81 26.666 1.91 9.943-18.15 18.528-20.811 7.134-2.212 28.207 21.01 50.527 15.955 17.062-3.864 29.187-13.787 29.187-22.029 0-8.242-8.704-6.628-18.687 1.799-9.811 8.282-27.19 11.597-31.775 6.056-2.41-2.913-.379-6.584 9.543-17.22 30.309-32.49 41.05-51.868 37.2-67.24-1.574-6.282-21.431-20.606-28.856-20.606zm-1.237 15.404c16.002 2.865-33.388 65.22-38.91 65.637-4.743.358 28.948-67.42 38.91-65.637z" />
  <path style="fill:#1a1a1a" d="M92.094 194.913c-33.61.481-13.84 14.246-6.415 12.505 18.892-4.431.43 107.05 12.989 114.808 4.48 2.768 28.945 3.444 29.27-.687 2.979-37.895 1.871-77.915 2.406-116.929l22.92-1.674c.887 73.597 2.362 114.357 5.543 118.203 4.737 5.726 46.368 1.023 48.375-.224 4.824-2.998 2.807-6.756-3.643-6.756-7.61 0-11.296-1.643-13.137-13.701-2.713-17.773-1.605-77.4-2.614-100.955-.001-2.529.022-3.471-2.383-3.624-7.704-.425-63.598-1.391-93.311-.966zM288.039 193.77c-4.945 5.98 1.231 12.188 12.163 12.188 11.3 0 12.937 4.552 7.531 20.855-4.562 13.755-8.138 19.718-11.844 19.718-1.25 0-12.912-12.17-25.912-27.048-24.626-28.185-31.503-32.035-41.02-23.003-5.002 5.661-33.077 25.765-27.588 31.719 5.914 6.415 9.938-8.716 17.338-8.716 5.375 0 26.203 23.065 26.194 29.015-.004 2.635-3.725 7.224-8.275 10.203-34.097 22.32-19.268 66.285 8.9 66.285 16.975 0 35.576-17.64 48.488-45.993 26.482-58.143 35.643-82.456 32.825-87.04-2.517-4.095-35.14-2.61-38.8 1.817zm-22.388 74.502c13.418 15.076 13.397 18.6-.212 29.084-25.376 19.55-39.412-15.396-25.256-28.403 10.801-9.925 17.07-10.117 25.468-.681zM228.501 59.851c-7.425 0-22.957 19.87-35.256 45.693-6.427 13.495-12.294 24.57-13.032 24.601-.75.038-.95-15.166-.462-33.767 1.131-42.914-.144-43.82-27.013-19.206-10.725 9.821-20.45 17.851-21.625 17.851-.697 0-7.883 8.59 6.65 7.449 8.25-.648 8.731-.175 8.606 8.105-1.112 65.061 1.1 63.28-3.984 64.15-4 .683-5.684 7.527-2.847 8.33 45.373 12.836 31.735-16.793 41.824-19.921 7.134-2.212 28.207 21.01 50.527 15.955 17.062-3.864 29.187-13.787 29.187-22.029 0-8.242-8.704-6.628-18.687 1.799-9.811 8.282-27.19 11.597-31.775 6.056-2.41-2.913-.379-6.584 9.543-17.22 30.309-32.49 41.05-51.868 37.2-67.24-1.574-6.282-21.431-20.606-28.856-20.606zm-1.237 15.404c16.002 2.865-33.388 65.22-38.91 65.637-4.743.358 28.948-67.42 38.91-65.637z" />
  <path style="fill:#1a1a1a" d="M116.265.021c-8.419.375-17.3 5.695-21.2 13.019-26.95 50.663-38.525 63.813-82.895 96.63C4.62 115.252-.81 127.26.114 136.707 10.295 240.642 10.395 270.213.102 375.348c-.925 9.422 4.568 21.448 12.187 27.086 44.294 32.774 55.863 45.893 82.845 96.643 4.412 8.304 15.387 13.999 24.762 12.738 69.463-9.366 90.038-9.46 160.252.012 9.343 1.261 20.343-4.508 24.8-12.887 26.95-50.657 38.513-63.794 82.875-96.606 7.557-5.588 12.988-17.589 12.063-27.036-10.188-103.936-10.281-133.513.012-238.641.925-9.429-4.575-21.442-12.187-27.074-44.294-32.774-55.863-45.911-82.845-96.655-4.418-8.305-15.393-14-24.762-12.738-69.47 9.366-90.05 9.453-160.258-.019a20.456 20.436 0 0 0-3.581-.15zm-.45 15.673h.069c72.125 9.728 96.844 9.615 168.164 0 .975-.131 4.6 1.823 5.068 2.703 28.288 53.198 43.482 70.431 89.901 104.779 2.425 1.792 4.675 6.968 4.413 9.597-10.513 107.382-10.394 140.238 0 246.365.262 2.741-2.032 7.924-4.294 9.597-46.513 34.404-61.644 51.7-89.888 104.785-.494.937-4.37 2.947-5.2 2.835-72.107-9.728-96.751-9.678-168.083-.063-1.031.125-4.712-1.873-5.125-2.653-28.294-53.198-43.494-70.419-89.907-104.767-2.356-1.735-4.625-6.968-4.362-9.665 10.512-107.376 10.393-140.238 0-246.36-.27-2.74 2.03-7.929 4.293-9.602 46.52-34.404 61.657-51.687 89.901-104.779.438-.824 3.163-2.685 5.05-2.772z" />
  <path style="fill:#1a1a1a" d="M200.003 32.178A165.826 223.819 0 0 0 34.171 255.984a165.826 223.819 0 0 0 165.832 223.838A165.826 223.819 0 0 0 365.83 255.99 165.826 223.819 0 0 0 200.003 32.178zm0 12.263a147.626 211.543 0 0 1 147.614 211.543 147.626 211.543 0 0 1-147.62 211.562A147.626 211.543 0 0 1 52.383 255.984 147.626 211.543 0 0 1 199.997 44.441z" />
</svg>