<svg width="400" height="512" xmlns="http://www.w3.org/2000/svg">
  <path style="fill:#1a1a1a" d="M146.369 432.897c0 8.631-10.122 13.9-17.916 8.138-5.321 9.875 31.565 28.113 35.15 19.978-10.058-3.423-5.781-7.958.928-6.956z" />
  <path style="fill:#1a1a1a" d="M206.861 346.118c2.071 10.942 21.63-5.955 11.253 16.202-8.94 19.087-39.088 58.615-38.809 37.6l.447-33.541c1.13-42.914-.145-43.821-27.014-19.207-10.725 9.82-20.45 17.851-21.625 17.851-.696 0-7.882 8.591 6.65 7.45 8.25-.648 8.731-.177 8.606 8.103-1.112 65.061 1.044 63.002-3.984 64.15-2.191.501-3.08 5.325-.734 6.444 4.077 1.945 25.792 5.071 31.347 1.192 6.627-4.626 1.267-17.025 8.363-19.225 7.134-2.212 28.208 21.01 50.528 15.955 25.542-5.784 36.09-23.343 27.703-26.381-8.385-3.038-12.398 6.36-27.61 11.288-18.98 6.148-43.635.997-13.35-29.621 31.634-31.981 38.042-48.526 32.84-57.414-7.943-13.568-45.856-7.427-44.61-.846zM273.155 281.89c-.482 9.916-14.564 27.301-31.058 24.703-13.334-2.1-9.471-24.108-2.215-36.266 4.146-6.945-4.809-9.169-7.406-6.125-25.212 29.549-8.936 64.19 17.853 60.088 40.388-6.185 82.974-122.375 75.998-129.87-6.977-7.494-33.985-5.854-38.288-.65-4.303 5.204 1.68 9.863 12.612 9.863 22.842 0-.533 41.359-4.762 42.898-4.229 1.539-12.912-12.17-25.912-27.048-24.626-28.185-31.503-32.035-41.02-23.003-5.002 5.661-33.077 25.765-27.588 31.719 5.914 6.415 9.938-8.716 17.338-8.716 6.753 0 55.182 47.3 54.448 62.408z" />
  <path style="fill:#1a1a1a" d="M92.094 194.913c-33.61.481-13.84 14.246-6.415 12.505 18.892-4.431.43 107.05 12.989 114.808 4.48 2.768 28.945 3.444 29.27-.687 2.979-37.895 1.871-77.915 2.406-116.929l22.92-1.674c.887 73.597 2.362 114.357 5.543 118.203 4.737 5.726 46.368 1.023 48.375-.224 4.824-2.998 2.807-6.756-3.643-6.756-7.61 0-11.296-1.643-13.137-13.701-2.713-17.773-2.176-70.407-2.499-93.98-.09-6.553-3.21-10.547-10.079-10.925-7.703-.425-56.017-1.065-85.73-.64zM206.861 76.118c2.071 10.942 21.63-5.955 11.253 16.202-8.94 19.087-39.088 58.615-38.809 37.6l.447-33.541c1.13-42.914-.145-43.821-27.014-19.207-10.725 9.82-20.45 17.851-21.625 17.851-.696 0-7.882 8.591 6.65 7.45 8.25-.648 8.731-.177 8.606 8.103-1.112 65.061 1.044 63.002-3.984 64.15-2.191.501-3.08 5.325-.734 6.444 4.077 1.945 25.792 5.071 31.347 1.192 6.627-4.626 1.267-17.025 8.363-19.225 7.134-2.212 28.208 21.01 50.528 15.955 25.542-5.784 36.09-23.343 27.703-26.381-8.385-3.038-12.398 6.36-27.61 11.288-18.98 6.148-43.635.997-13.35-29.621 31.634-31.981 38.042-48.526 32.84-57.414-7.943-13.568-45.856-7.427-44.61-.846z" />
  <path style="fill:#1a1a1a" d="M116.265.021c-8.419.375-17.3 5.695-21.2 13.019-26.95 50.663-38.525 63.813-82.895 96.63C4.62 115.252-.81 127.26.114 136.707 10.295 240.642 10.395 270.213.102 375.348c-.925 9.422 4.568 21.448 12.187 27.086 44.294 32.774 55.863 45.893 82.845 96.643 4.412 8.304 15.387 13.999 24.762 12.738 69.463-9.366 90.038-9.46 160.252.012 9.343 1.261 20.343-4.508 24.8-12.887 26.95-50.657 38.513-63.794 82.875-96.606 7.557-5.588 12.988-17.589 12.063-27.036-10.188-103.936-10.281-133.513.012-238.641.925-9.429-4.575-21.442-12.187-27.074-44.294-32.774-55.863-45.911-82.845-96.655-4.418-8.305-15.393-14-24.762-12.738-69.47 9.366-90.05 9.453-160.258-.019a20.456 20.436 0 0 0-3.581-.15zm-.45 15.673h.069c72.125 9.728 96.844 9.615 168.164 0 .975-.131 4.6 1.823 5.068 2.703 28.288 53.198 43.482 70.431 89.901 104.779 2.425 1.792 4.675 6.968 4.413 9.597-10.513 107.382-10.394 140.238 0 246.365.262 2.741-2.032 7.924-4.294 9.597-46.513 34.404-61.644 51.7-89.888 104.785-.494.937-4.37 2.947-5.2 2.835-72.107-9.728-96.751-9.678-168.083-.063-1.031.125-4.712-1.873-5.125-2.653-28.294-53.198-43.494-70.419-89.907-104.767-2.356-1.735-4.625-6.968-4.362-9.665 10.512-107.376 10.393-140.238 0-246.36-.27-2.74 2.03-7.929 4.293-9.602 46.52-34.404 61.657-51.687 89.901-104.779.438-.824 3.163-2.685 5.05-2.772z" />
  <path style="fill:#1a1a1a" d="M200.003 32.178A165.826 223.819 0 0 0 34.171 255.984a165.826 223.819 0 0 0 165.832 223.838A165.826 223.819 0 0 0 365.83 255.99 165.826 223.819 0 0 0 200.003 32.178zm0 12.263a147.626 211.543 0 0 1 147.614 211.543 147.626 211.543 0 0 1-147.62 211.562A147.626 211.543 0 0 1 52.383 255.984 147.626 211.543 0 0 1 199.997 44.441z" />
</svg>