<svg width="512" height="482" xmlns="http://www.w3.org/2000/svg">
  <path style="fill:#1a1a1a" d="M344.223 407.706c-30.055 15.815-71.854 50.749-85.591 62.233l-2.15 1.787-.958.005-2.181-1.812c-13.727-11.48-55.532-46.403-85.56-62.208-35.462-18.678-35.016-65.142-35-65.675V175.15h246.45v166.963c0 .461.45 46.925-35.005 65.598m41.963-65.67v-173.87H125.814V341.97c-.051 2.074-.6 51.205 38.722 71.895 29.379 15.462 70.605 50.212 84.342 61.399l7.117 5.801 7.106-5.786c13.743-11.187 54.964-45.941 84.373-61.414 39.306-20.685 38.758-69.821 38.712-71.829"/>
  <path style="fill:#1a1a1a" d="M332.861 385.224c-19.548 10.286-44.707 28.073-76.866 54.338-32.154-26.265-57.308-44.052-76.851-54.333-21.71-11.433-21.97-43.438-21.97-43.756V198.651h197.652l.005 142.996c0 .313-.322 32.19-21.97 43.587M150.205 191.667l-.01 149.811c0 1.485.297 36.542 25.703 49.905 19.558 10.312 45.04 28.416 77.89 55.378l2.207 1.818 2.222-1.818c32.845-26.962 58.322-45.066 77.896-55.378 25.4-13.363 25.692-48.256 25.692-49.74V191.666zM256 85.565c1.193 2.033 2.616 3.584 4.485 4.946-1.869 1.357-3.292 2.919-4.485 4.936a15.841 15.841 0 0 0-4.49-4.936c1.869-1.356 3.292-2.913 4.49-4.946m0 33.91c1.495 2.867 3.052 6.907 3.052 11.361 0 4.414-1.557 8.469-3.052 11.352-1.495-2.883-3.046-6.938-3.046-11.352 0-4.454 1.546-8.499 3.036-11.366zm0 34.73 2.703-3.303c.297-.369 7.317-9.083 7.317-20.07 0-13.692-18.16-27.94 3.144-37.12l4.3-1.854c8.023 5.709 19.6 5.842 28.61 9.457 11.546 4.633 20.138 17.213 20.773 29.66.983 19.015-24.617 25.057-37.366 11.484-11.848-12.62-.2-26.762 9.098-21.72 2.683 1.45 4.71 4.455 3.405 7.374a3.487 3.487 0 0 0 6.37 2.841c2.667-6-.052-12.877-6.452-16.338-16.128-8.75-34.903 14.07-17.5 32.615 17.254 18.375 50.724 8.842 49.408-16.61-.256-4.976-1.925-10.265-4.526-15.278 8.94 7.67 14.505 13.471 26.941 13.471 24.612 3.277 46.638 14.991 61.625 22.989 6.656 3.548 11.898 6.359 15.554 7.398 17.321 4.962 16.282-17.556 5.156-17.556a7.895 7.895 0 0 0-7.86 8.96 266.148 266.148 0 0 1-9.574-4.951c-12.41-6.626-29.506-15.724-49.141-20.834 16.01-9.605 9.175-38.845-10.333-37.97-8.391.38-16.363 6.646-16.445 17.188-.092 10.215 12.749 15.575 19.579 9.902 2.268-1.873 3.113-4.669 2.324-7.659a3.492 3.492 0 0 0-6.743 1.771c.082.308.052.44.052.44-.794 1.383-8.295 1.025-8.244-4.402.052-6.329 4.844-10.194 9.923-10.327 12.083-.303 15.995 19.47 6.507 24.97-18.764 10.864-30.848-7.143-44.61-16.307-10.665-7.117-18.919-8.822-31.15-11.602-17.26-3.943-17.26-12.97-17.26-15.944 0-13.47 12.8-21.207 20.72-12.575 4.793 5.223 1.158 14.306-6.169 13.947-2.089-.112-3.968-.906-4.495-2.084-.466-1.054.691-1.915 1.695-.583a3.486 3.486 0 0 0 5.708-4.004c-.256-.359-2.56-3.543-6.261-3.635-5.12-.246-9.83 6.23-7.388 11.187 1.843 3.743 5.872 5.811 10.158 6.093 13.138.87 20.736-14.843 12.416-24.966-11.454-13.952-33.352-4.264-33.352 16.62 0 3.799.906 8.136 3.83 12.109-20.132-9.032-5.479-36.593 11.233-43.797l7.43-3.2-7.425-3.205C260.982 28.733 261.018 17.536 256 0c-5.028 17.53-4.992 28.733-23.685 36.787l-7.43 3.205 7.425 3.2c16.717 7.204 31.38 34.765 11.243 43.797 2.924-3.973 3.835-8.31 3.835-12.109 0-20.884-21.903-30.572-33.362-16.62-8.31 10.123-.722 25.841 12.421 24.966 4.286-.282 8.315-2.35 10.164-6.093 2.437-4.956-2.274-11.433-7.399-11.182-3.702.087-6.006 3.271-6.251 3.63a3.482 3.482 0 0 0 5.698 4.004c1.004-1.332 2.166-.471 1.695.583-.522 1.178-2.406 1.972-4.495 2.084-7.322.359-10.957-8.72-6.17-13.947 7.915-8.632 20.726-.896 20.726 12.575 0 2.97 0 12.006-17.26 15.944-12.226 2.78-20.49 4.485-31.155 11.602-13.752 9.164-25.836 27.171-44.605 16.307-9.493-5.5-5.581-25.273 6.502-24.97 5.079.133 9.876 3.998 9.923 10.332.05 5.422-7.45 5.78-8.244 4.398 0 0-.03-.133.052-.44a3.497 3.497 0 0 0-2.479-4.26 3.492 3.492 0 0 0-4.265 2.488c-.783 2.99.057 5.786 2.325 7.66 6.83 5.672 19.671.307 19.579-9.903-.082-10.547-8.049-16.809-16.446-17.187-19.507-.87-26.342 28.364-10.327 37.97-19.64 5.11-36.73 14.207-49.152 20.833-3.584 1.915-6.87 3.66-9.574 4.956a7.885 7.885 0 0 0-7.844-8.96c-11.13 0-12.175 22.513 5.15 17.551 3.651-1.04 8.905-3.85 15.55-7.398 14.997-7.998 37.018-19.712 61.63-22.989 12.441 0 18.002-5.8 26.936-13.466-2.6 5.008-4.265 10.297-4.52 15.273-1.322 25.447 32.153 34.985 49.407 16.605 17.398-18.54-1.372-41.36-17.505-32.615-6.4 3.466-9.114 10.343-6.451 16.343a3.492 3.492 0 0 0 6.369-2.841c-1.306-2.919.722-5.924 3.41-7.373 9.298-5.043 20.94 9.098 9.098 21.719-12.754 13.568-38.354 7.526-37.376-11.484.64-12.447 9.231-25.027 20.782-29.66 9.011-3.615 20.583-3.748 28.61-9.457l4.296 1.858c21.31 9.176 3.144 23.424 3.144 37.12 0 10.983 7.02 19.697 7.322 20.07zm0-130.633c3.292 8.013 7.235 12.483 14.305 16.42-7.07 3.932-11.013 8.412-14.305 16.41-3.287-7.998-7.24-12.478-14.31-16.41 7.07-3.942 11.023-8.407 14.31-16.42m-97.997 125.302c3.267-2.048 5.458-5.253 6.81-7.833-2.924.112-6.753.706-10.01 2.764-3.256 2.054-5.458 5.264-6.8 7.84 2.93-.093 6.754-.707 10.005-2.766m-6.922-10.972c8.515-5.36 18.934-3.594 19.43-3.512l3.779.676-1.024 3.696c-.123.43-3.046 10.65-11.546 16-5.053 3.195-10.803 3.876-14.73 3.876-2.678 0-4.495-.307-4.695-.343l-3.778-.665 1.029-3.702c.117-.43 3.041-10.66 11.535-16.026m-42.532-29.025c-6.006-1.828-12.708-1.152-18.631.635 2.882 3.522 8.125 8.76 15.13 10.885 6.005 1.828 12.717 1.157 18.626-.625-2.883-3.533-8.12-8.77-15.125-10.895m-5.53 18.186c-13.506-4.101-21.278-16.906-21.606-17.449l-1.976-3.292 3.471-1.638c7.962-3.748 19.113-5.074 27.669-2.473 13.506 4.106 21.278 16.906 21.606 17.454l1.961 3.287-3.461 1.654c-7.946 3.742-18.995 5.089-27.663 2.457m87.93-51.865c-4.198-2.842-9.308-3.574-12.646-3.723 1.413 3.2 3.973 7.542 8.14 10.368 4.184 2.842 9.273 3.58 12.622 3.723-1.434-3.21-3.989-7.558-8.115-10.363m-8.423 12.405c-9.441-6.405-12.37-18.14-12.493-18.636l-.9-3.728 3.798-.537c7.204-.942 15.908.655 21.919 4.73 9.446 6.4 12.365 18.14 12.493 18.632l.9 3.733-3.803.532c-7.066 1.02-16.026-.727-21.914-4.726m171.464 61.261c-3.267-2.048-5.458-5.253-6.81-7.833 2.924.112 6.753.706 10.01 2.764 3.256 2.054 5.458 5.264 6.804 7.84-2.928-.093-6.748-.707-10.004-2.766m6.917-10.972c-8.504-5.36-18.934-3.594-19.425-3.512l-3.784.676 1.024 3.696c.123.43 3.046 10.65 11.546 16 5.053 3.195 10.803 3.876 14.73 3.876 2.683 0 4.505-.307 4.695-.343l3.789-.665-1.04-3.702c-.117-.43-3.041-10.66-11.535-16.026m42.537-29.025c6-1.828 12.697-1.152 18.626.635-2.882 3.522-8.125 8.76-15.13 10.885-6 1.828-12.717 1.157-18.62-.625 2.877-3.533 8.115-8.77 15.124-10.895m5.53 18.186c13.5-4.101 21.278-16.906 21.606-17.449l1.971-3.292-3.471-1.638c-7.952-3.748-19.113-5.074-27.664-2.473-13.511 4.106-21.283 16.906-21.606 17.454l-1.966 3.287 3.461 1.654c7.946 3.742 18.995 5.089 27.663 2.457m-87.925-51.86c4.193-2.842 9.298-3.574 12.646-3.723-1.423 3.2-3.973 7.542-8.146 10.368-4.178 2.842-9.277 3.58-12.626 3.723 1.434-3.21 3.994-7.557 8.126-10.363m8.412 12.406c9.441-6.406 12.37-18.14 12.493-18.637l.906-3.728-3.804-.537c-7.204-.942-15.903.655-21.92 4.73-9.44 6.4-12.364 18.14-12.487 18.632l-.9 3.733 3.798.532c7.066 1.02 16.036-.727 21.914-4.725"/>
  <path style="fill:#1a1a1a" d="M289.178 297.298c0 18.893-3.441 32.773-10.343 41.62-6.917 8.807-18.155 13.24-33.715 13.24h-7.245v-109.26a199.854 199.854 0 0 1 17.024-.768c8.443 0 15.155 1.797 20.065 5.478 4.931 3.636 8.54 9.37 10.809 17.152 2.268 7.808 3.4 18.617 3.4 32.538M252.63 362.91c23.526 0 40.914-5.34 52.157-15.985 11.254-10.68 16.86-26.962 16.86-48.86 0-22.497-5.375-39.25-16.117-50.227-10.752-10.983-27.034-16.497-48.794-16.497l-43.883.41H190.35v7.137l16.825 2.642v111.703l-16.825 2.534v7.143zM69.33 191.964c.43 3.19 1.474 7.255 4.034 10.634 2.786 3.666 6.897 5.847 9.984 7.066-.348-3.277-1.341-7.818-4.147-11.51-3.02-3.978-5.427-5.232-9.871-6.195m-15.82 57.83c4.576-.286 8.667-2.488 11.38-4.387-2.938-1.536-7.239-3.21-11.862-2.919-4.583.292-8.679 2.499-11.392 4.393 2.934 1.536 7.234 3.226 11.868 2.919m31.242-55.855c6.62 8.72 5.694 20.265 5.642 20.762l-.327 3.814-3.774-.696c-.486-.097-11.858-2.304-18.473-11.018-4.562-6.011-5.53-13.379-5.693-17.531-5.443-1.208-9.83-.051-12.452 5.212-5.105 10.204 7.783 18.038 13.988 21.955 5.376 3.394 11.315 6.523 16.2 12.4 13.24 15.944 19.435 41.8 17.776 57.585-.24 2.299-2.099 3.261-3.82 3.072-1.74-.18-3.353-1.505-3.112-3.789 1.51-14.361-4.132-37.888-16.205-52.413-6.246-7.521-13.399-11.658-21.248-12.283-14.218-1.132-20.357 6.277-21.284 12.964-.486 3.476.41 7.25 2.842 9.37 2.918-2.494 9.559-7.302 17.776-7.824 10.88-.696 20.055 6.487 20.419 6.774l3.005 2.401-2.672 2.75c-.343.348-8.469 8.611-19.39 9.303-6.364.41-12.866-1.87-18.191-5.228-7.347-1.956-11.92-9.733-10.69-18.504 1.32-9.513 9.261-18.534 24.084-19.036-5.479-5.601-10.2-13.63-5.709-22.61 8.254-16.522 32.794-8.653 41.308 2.57M22.62 198.57c-3.84-1.449-8.212-1.444-12.206-.686 2.028 2.596 5.274 5.908 9.62 7.547 3.85 1.449 8.208 1.433 12.212.68-2.033-2.6-5.284-5.913-9.626-7.541m16.45 12.882c-6.348 2.514-14.996 2.954-21.498.491-10.24-3.855-15.6-14.13-15.821-14.576L0 193.95l3.574-1.403c6.369-2.504 15.001-2.95 21.504-.497 10.235 3.856 15.595 14.142 15.815 14.577l1.751 3.42zm47.596 205.174c-14.238-36.05 7.153-47.58 18.453-75.843 25.697-64.225-2.156-167.424-3.354-171.791a3.485 3.485 0 0 0-6.722 1.843c.281 1.05 28.441 105.288 3.61 167.357-12.473 31.202-32.615 39.373-18.249 80.113zm-11.863-78.03c7.89-5.201 12.288-13.864 14.305-18.907-7.9-.195-16.337 1.305-23.019 5.708-7.895 5.208-12.288 13.865-14.3 18.904 7.833.256 16.435-1.362 23.014-5.704M62.26 319.575c8.571-5.647 21.94-8.11 32.133-6.456l3.8.583-.948 3.723c-.194.722-4.71 17.827-18.611 26.992-8.689 5.735-21.576 7.987-32.128 6.457l-3.794-.59.952-3.716c.185-.722 4.695-17.828 18.601-26.993m57.396 57.866c-1.664-7.782-6.974-13.931-10.476-17.285-1.818 4.5-4.116 12.309-2.442 20.08 1.68 7.773 6.989 13.937 10.5 17.286 1.808-4.48 4.112-12.262 2.423-20.08m1.792 27.432-1.915 3.328-3.123-2.232c-.548-.394-13.353-9.697-16.487-24.269-3.149-14.571 4.685-28.34 5.023-28.923l1.925-3.318 3.123 2.233c.538.4 13.338 9.712 16.471 24.274 3.149 14.576-4.68 28.339-5.017 28.907m321.218-212.91c-.42 3.19-1.474 7.255-4.034 10.634-2.786 3.666-6.897 5.847-9.984 7.066.338-3.277 1.341-7.818 4.147-11.51 3.02-3.978 5.422-5.232 9.871-6.195m15.821 57.83c-4.588-.286-8.668-2.488-11.377-4.387 2.944-1.536 7.235-3.21 11.848-2.919 4.593.292 8.684 2.499 11.402 4.393-2.933 1.536-7.234 3.226-11.868 2.919m-31.257-55.855c-6.616 8.72-5.684 20.265-5.643 20.762l.343 3.814 3.769-.696c.486-.097 11.858-2.304 18.473-11.018 4.562-6.011 5.54-13.379 5.693-17.531 5.443-1.208 9.83-.051 12.452 5.212 5.105 10.204-7.772 18.038-13.988 21.955-5.376 3.394-11.315 6.523-16.205 12.4-13.235 15.944-19.435 41.8-17.771 57.585.24 2.299 2.099 3.261 3.824 3.072 1.736-.18 3.349-1.505 3.108-3.789-1.51-14.361 4.132-37.888 16.2-52.413 6.257-7.521 13.404-11.658 21.258-12.283 14.213-1.132 20.352 6.277 21.284 12.964.481 3.476-.41 7.25-2.837 9.37-2.928-2.494-9.569-7.302-17.797-7.824-10.864-.696-20.044 6.487-20.418 6.774l-2.995 2.401 2.662 2.75c.348.348 8.484 8.611 19.405 9.303 6.359.41 12.866-1.87 18.186-5.228 7.347-1.956 11.91-9.733 10.696-18.504-1.331-9.513-9.267-18.534-24.095-19.036 5.489-5.601 10.204-13.63 5.714-22.61-8.243-16.522-32.794-8.653-41.318 2.57m62.136 4.629c3.84-1.449 8.212-1.444 12.216-.686-2.027 2.596-5.289 5.908-9.625 7.547-3.846 1.449-8.213 1.433-12.212.68 2.028-2.6 5.28-5.913 9.626-7.541m-16.45 12.882c6.348 2.514 14.99 2.954 21.498.491 10.235-3.855 15.586-14.13 15.816-14.576l1.751-3.42-3.569-1.403c-6.374-2.504-15.006-2.95-21.504-.497-10.24 3.855-15.6 14.142-15.82 14.577l-1.751 3.42zm-47.606 205.174c14.243-36.05-7.148-47.58-18.453-75.843-25.692-64.225 2.16-167.424 3.364-171.791a3.482 3.482 0 1 1 6.712 1.848c-.276 1.045-28.436 105.283-3.599 167.352 12.467 31.202 32.604 39.373 18.237 80.113zm11.863-78.034c-7.89-5.202-12.288-13.865-14.31-18.908 7.905-.195 16.332 1.305 23.024 5.708 7.885 5.207 12.288 13.865 14.3 18.903-7.839.256-16.435-1.362-23.014-5.703m12.544-19.021c-8.566-5.647-21.94-8.11-32.139-6.456l-3.793.583.952 3.723c.179.721 4.71 17.827 18.6 26.992 8.695 5.735 21.582 7.987 32.144 6.456l3.789-.588-.952-3.717c-.19-.722-4.71-17.828-18.596-26.993m-57.416 57.871c1.674-7.782 6.989-13.931 10.486-17.285 1.817 4.5 4.116 12.309 2.432 20.08-1.67 7.773-6.989 13.937-10.486 17.286-1.823-4.48-4.116-12.262-2.432-20.08m-1.792 27.432 1.93 3.328 3.124-2.232c.537-.394 13.342-9.697 16.47-24.269 3.155-14.571-4.674-28.34-5.012-28.923l-1.93-3.318-3.123 2.233c-.538.4-13.338 9.712-16.476 24.274-3.144 14.576 4.69 28.339 5.017 28.907"/>
</svg>