<svg width="512" height="512" xml:space="preserve" xmlns="http://www.w3.org/2000/svg">
  <path style="fill:#231f20" d="M84.59 387.203V130.36l146.761-72.724v396.736l-48.915-23.606v-283.92l-48.928 20.21v243.211zM256.008 0C114.632 0 0 114.62 0 256c0 141.392 114.632 256 256.008 256C397.385 512 512 397.392 512 256 512 114.62 397.385 0 256.008 0zm0 26.664V485.32C129.364 485.32 26.68 382.658 26.68 256c0-126.647 102.685-229.336 229.33-229.336zm35.739 30.977 146.769 72.723v256.847l-48.929 23.063V167.05l-48.928-20.21v283.925l-48.912 23.61z"/>
</svg>