<svg width="512" height="512" xml:space="preserve" xmlns="http://www.w3.org/2000/svg">
  <circle style="fill:#fff" cx="256" cy="256" r="256"/>
  <path style="fill:#231f20" d="M103.338 372.853V144.102l130.71-64.77v353.343l-43.566-21.024V158.785l-43.576 18v216.609zM256.008 28C130.093 28 28 130.083 28 256c0 125.927 102.094 228 228.007 228C381.921 484 484 381.927 484 256c0-125.917-102.079-228-227.993-228zm0 23.747v408.491C143.214 460.238 51.76 368.805 51.76 256c0-112.795 91.454-204.253 204.246-204.253zm31.829 27.59 130.716 64.769v228.753L374.976 393.4V176.779l-43.577-18V411.65l-43.562 21.028z"/>
</svg>